# xmcd
#
# Track frame offsets:
#	150
#	17696
#	34981
#	55624
#	76778
#	94396
#	111556
#	132633
#	154698
#	168392
#	188965
#	206210
#	227271
#	240016
#	259004
#	274314
#	296365
#
# Disc length: 4195 seconds
#
# Revision: 4
# Processed by: cddbd v1.5.2PL0 Copyright (c) Steve Scherf et al.
# Submitted via: EZCDAudioConverter 1.3.4.1
#
DISCID=e7106111
DTITLE=V/A - Saigon Rock and Soul
DYEAR=2012
DGENRE=
TTITLE0=Cbc Band - Tinh Yêu Tuyệt Vời (The Greatest Love)
TTITLE1=Elvis Phương - Bài Ca Ngông (The Crazy Song)
TTITLE2=Carol Kim - Cái Trâm Em Cài (Your Hair Clip)
TTITLE3=Thanh Mai - Tóc Mai Sợi Vắn Sợi Dài (Long, Uneven Hair)
TTITLE4=Connie Kim - Nỗi Buồn Con Gái (The Sadness Of Being A Girl)
TTITLE5=Bich Loan And Cbc Band - Con Tim Và Nước Mắt (Heart And Tears)
TTITLE6=Phương Tâm - Đêm Huyền Diệu (Magical Night)
TTITLE7=Hoàng Oanh - Sao Biển (Etoile Des Neiges) (Starfish)
TTITLE8=Minh Xuân and Phượng Hoàng - Mặt Trời Đen (Black Sun)
TTITLE9=Thai Thanh - Bừng Sáng (Dawn)
TTITLE10=Connie Kim - Nhung Dóm Mat Hoa Châu (Fireballs)
TTITLE11=Giao Linh - Chuyện Tình Sao Ly (A Love Story From Sau Ri)
TTITLE12=Elvis Phương - Kho Tàng Của Chúng Ta (Our Treasures)
TTITLE13=Thanh Lan - Hoài Thu (Autumn Memory)
TTITLE14=Hùng Cường and Mai Lệ Huyền - Hờn Anh Giận Em (Jealousy)
TTITLE15=Mai Lệ Huyền - Duyên Phận Con Gái (A Girl's Destiny)
TTITLE16=Phương Dung - Đố Ai (Riddles)
EXTD=
EXTT0=
EXTT1=
EXTT2=
EXTT3=
EXTT4=
EXTT5=
EXTT6=
EXTT7=
EXTT8=
EXTT9=
EXTT10=
EXTT11=
EXTT12=
EXTT13=
EXTT14=
EXTT15=
EXTT16=
PLAYORDER=
